<svg xmlns="http://www.w3.org/2000/svg" xmlns:xlink="http://www.w3.org/1999/xlink" viewBox="0 0 9.58853 12.99357"><defs><linearGradient id="a" x1="5.01369" y1="249.35903" x2="12.54455" y2="256.88988" gradientTransform="matrix(-1, 0, 0, 1, 29.3315, 0)" gradientUnits="userSpaceOnUse"><stop offset="0.01456" stop-color="#f54e55"/><stop offset="0.23104" stop-color="#f14a51"/><stop offset="0.46368" stop-color="#e53d44"/><stop offset="0.7038" stop-color="#d2272e"/><stop offset="0.94771" stop-color="#b70910"/><stop offset="1" stop-color="#b00209"/></linearGradient><linearGradient id="b" x1="7.08623" y1="250.53888" x2="10.46931" y2="253.92196" xlink:href="#a"/></defs><title>hamburger-marker_bp</title><path d="M15.75942,252.37507c0,2.7222,3.84069,7.21955,4.64694,8.13366a.19242.19242,0,0,0,.29143-.00236c.799-.93857,4.65016-5.59394,4.65016-8.1313a4.79427,4.79427,0,1,0-9.58853,0Zm1.1841-.19642a3.61017,3.61017,0,1,1,3.61021,3.61049A3.61033,3.61033,0,0,1,16.94352,252.17865Z" transform="translate(-15.75942 -247.58074)" style="fill:url(#a)"/><path d="M20.55371,254.6227a2.39227,2.39227,0,1,0-2.39213-2.39233A2.39213,2.39213,0,0,0,20.55371,254.6227Z" transform="translate(-15.75942 -247.58074)" style="fill:url(#b)"/><circle cx="4.77995" cy="4.68748" r="4.12791" style="fill:#ffca05"/><path d="M20.5403,256.436a4.16708,4.16708,0,1,1,2.946-1.22051A4.14431,4.14431,0,0,1,20.5403,256.436Zm0-8.25945a4.0929,4.0929,0,1,0,4.09289,4.09289A4.09747,4.09747,0,0,0,20.5403,248.17655Z" transform="translate(-15.75942 -247.58074)" style="fill:#231f20"/><polygon points="1.993 2.185 2.154 2.318 2.014 2.483 1.856 2.346 1.793 2.42 2.21 2.77 2.27 2.7 2.08 2.539 2.221 2.374 2.41 2.535 2.47 2.465 2.056 2.111 1.993 2.185" style="fill:#231f20"/><path d="M18.28166,249.98275l.07716-.06663-.03858-.13678.16484-.14029.12626.05962.07716-.06664-.5822-.27707Zm.11925-.38228-.10522.08768-.0491-.16484Z" transform="translate(-15.75942 -247.58074)" style="fill:#231f20"/><polygon points="3.14 1.729 2.778 1.452 2.968 2.034 3.052 1.985 2.95 1.694 3.245 1.915 3.21 1.546 3.406 1.788 3.49 1.743 3.097 1.273 3.14 1.729" style="fill:#231f20"/><path d="M19.47762,248.93761a.129.129,0,0,0,.007-.10171.13177.13177,0,0,0-.10171-.0982.26132.26132,0,0,0-.14029.01753l-.07365.02455.17887.51556.12626-.04559a.24655.24655,0,0,0,.11223-.07716.14477.14477,0,0,0,.01753-.13678A.143.143,0,0,0,19.47762,248.93761Zm-.07015.242-.0491-.14028.02455-.007a.17593.17593,0,0,1,.08067-.01052.05664.05664,0,0,1,.0526.04209c.007.01753.02455.07014-.07715.10521Zm-.014-.25251a.12951.12951,0,0,1-.06313.03507h0l-.04559-.13328h.00351a.14057.14057,0,0,1,.07014-.01052c.014.00351.03157.01052.04209.0456C19.411,248.90254,19.404,248.92007,19.39344,248.92709Z" transform="translate(-15.75942 -247.58074)" style="fill:#231f20"/><path d="M20.07033,248.54831l-.09119.01754.05612.31214a.202.202,0,0,1-.00351.10521.09477.09477,0,0,1-.07716.05612.08553.08553,0,0,1-.09118-.02806.23456.23456,0,0,1-.04209-.0982l-.05611-.31214-.09119.01753.05962.33319a.19927.19927,0,0,0,.1964.17886.17112.17112,0,0,0,.04209-.0035.19681.19681,0,0,0,.16133-.249Z" transform="translate(-15.75942 -247.58074)" style="fill:#231f20"/><path d="M20.61044,248.68158a.15331.15331,0,0,0-.07716-.13327.263.263,0,0,0-.14379-.021l-.09119.0035.014.54362.09469-.00351-.007-.21744h.00351l.15782.21393.11574-.0035-.17186-.22446A.15882.15882,0,0,0,20.61044,248.68158Zm-.09119.007a.06874.06874,0,0,1-.03507.06663.17709.17709,0,0,1-.08417.01754h-.007l-.0035-.15782h.0035C20.48067,248.61144,20.51925,248.636,20.51925,248.6886Z" transform="translate(-15.75942 -247.58074)" style="fill:#231f20"/><path d="M21.04884,248.906l.12977.01754a.168.168,0,0,1-.16835.10171.1868.1868,0,0,1-.12275-.07716.20623.20623,0,0,1-.03507-.14029.20314.20314,0,0,1,.07365-.12976.18221.18221,0,0,1,.27707.05962l.007.014.07365-.05261-.007-.01052a.27408.27408,0,0,0-.20342-.13328.2883.2883,0,0,0-.21043.05612.284.284,0,0,0-.10873.18588.28018.28018,0,0,0,.23148.31565.15761.15761,0,0,0,.03858.0035.242.242,0,0,0,.15432-.0526.27645.27645,0,0,0,.0982-.17536l.0035-.03507-.23147-.03157Z" transform="translate(-15.75942 -247.58074)" style="fill:#231f20"/><path d="M21.82042,248.74822l-.10171.30162c-.03156.09469-.08066.12976-.15081.10521s-.08768-.08066-.05611-.17536l.10171-.30161-.08768-.02806-.10873.32266a.19576.19576,0,0,0,.12626.26655.26214.26214,0,0,0,.07015.01052.20245.20245,0,0,0,.18939-.15081l.10872-.32266Z" transform="translate(-15.75942 -247.58074)" style="fill:#231f20"/><polygon points="6.489 1.683 6.531 1.606 6.349 1.511 6.398 1.409 6.587 1.504 6.629 1.427 6.356 1.287 6.107 1.771 6.38 1.911 6.422 1.834 6.233 1.736 6.307 1.588 6.489 1.683" style="fill:#231f20"/><path d="M22.72879,249.42862a.16252.16252,0,0,0,.01753-.15432.2825.2825,0,0,0-.10171-.10171l-.07715-.05261-.31214.44191.07715.05261.12626-.17887.00351.00351v.26654l.09469.06664-.0035-.28057A.15833.15833,0,0,0,22.72879,249.42862Zm-.13328-.18589c.07015.0491.08768.09119.05612.13678a.06625.06625,0,0,1-.06664.03157.17389.17389,0,0,1-.07716-.03858l-.0035-.00351.09118-.12626Z" transform="translate(-15.75942 -247.58074)" style="fill:#231f20"/><rect x="22.56063" y="249.61531" width="0.54363" height="0.0947" transform="matrix(0.66089, -0.75049, 0.75049, 0.66089, -195.38481, -145.78149)" style="fill:#231f20"/><path d="M22.76035,249.95119l.06664.07716.13678-.04209.14379.16133-.05611.12977.06664.07716.263-.58921Zm.45944-.0456-.07014.15432-.09119-.10171Z" transform="translate(-15.75942 -247.58074)" style="fill:#231f20"/><path d="M20.5438,249.31639a2.94254,2.94254,0,1,1-2.94254,2.94253A2.94418,2.94418,0,0,1,20.5438,249.31639Z" transform="translate(-15.75942 -247.58074)" style="fill:#d71921"/><path d="M20.5438,255.233a2.97411,2.97411,0,1,1,2.97411-2.97411A2.97563,2.97563,0,0,1,20.5438,255.233Zm0-5.88508a2.911,2.911,0,1,0,2.911,2.911A2.91276,2.91276,0,0,0,20.5438,249.348Z" transform="translate(-15.75942 -247.58074)" style="fill:#231f20"/><path d="M17.35576,250.66315l.33318.01052c.30162.01052.13328.41034-.07014.36826.61727.35773-.54011.86978-.76457.55063Z" transform="translate(-15.75942 -247.58074)" style="fill:#fff"/><path d="M18.47806,250.64561l-.30512.6313-.007.09119.0456.03507.08066-.05962.36124-.70144h.256c.021,0-.23849.64532-.23849.64532-.21745.30863-.12977.39281-.68741.36475-.0947-.07716-.14029-.16133-.0947-.25953l.34722-.74353Z" transform="translate(-15.75942 -247.58074)" style="fill:#fff"/><path d="M21.55738,250.65613l-.28759.62779.021.08768.04208-.05261.03858-.014.21394-.35774.16133-.30162h.25252c.021,0-.28058.63831-.28058.63831-.21744.30864-.14028.40684-.69793.37878-.014-.04209-.04208-.10522-.05611-.1473a.18694.18694,0,0,1,.01052-.16133l.33669-.69794Z" transform="translate(-15.75942 -247.58074)" style="fill:#fff"/><path d="M18.84632,251.62061l.53309-.95746h.41385c.12626.02806.14731.06313.15081.10521l-.02455.12977-.03507.14029-.13327.07014-.11574-.007.10171.05261-.01754.15431-.0491.07716-.04559.15432.014.07014-.29461-.007-.11924-.02105-.02806.03157-.07014-.00351Z" transform="translate(-15.75942 -247.58074)" style="fill:#fff"/><path d="M22.94623,251.62061l.52959-.93993.40333-.01052c.11223.01754.07716.014.15782.0982l-.014.12977-.04208.12275-.12977.0947-.11574-.007.0947.05962-.01052.14731-.021.10171-.05261.13327-.01052.07014a7.40518,7.40518,0,0,0-.78912,0" transform="translate(-15.75942 -247.58074)" style="fill:#fff"/><path d="M19.9581,251.50488l.11223.1964.5331.01052c.10872-.31915.21744-.64182.32967-.961-.02806-.07015-.021-.06664-.08768-.10872l-.12976-.02105h-.263a.29874.29874,0,0,0-.21394.20342s-.16484.30162-.24551.505a.22506.22506,0,0,0-.03507.17536" transform="translate(-15.75942 -247.58074)" style="fill:#fff"/><polygon points="6.173 4.04 6.833 4.061 7.253 3.079 6.689 3.1 6.173 4.04" style="fill:#fff"/><polygon points="6.299 6.109 6.98 6.13 7.39 5.145 6.829 5.145 6.299 6.109" style="fill:#fff"/><path d="M18.13787,253.67934l.505-.961h.42087c.11573.021.12976-.014.18588.13678l-.0491.21744-.10522.16484-.2946.05261L18.664,253.255l-.24551.44892Z" transform="translate(-15.75942 -247.58074)" style="fill:#fff"/><polygon points="3.466 6.106 3.974 5.148 4.188 5.141 3.837 5.867 4.304 5.874 4.192 6.134 3.466 6.106" style="fill:#fff"/><polygon points="4.349 6.099 5.03 5.148 5.353 5.148 5.181 6.127 4.349 6.099" style="fill:#fff"/><path d="M21.15055,253.40227l.249-.51556c.07716-.26655.72248-.235.66637.01052l-.01754.22446-.12275.32267-.18588.18237-.30864.13678c-.05611-.021-.11223-.04209-.16834-.05962-.12626-.05261-.1438-.1438-.11223-.30162" transform="translate(-15.75942 -247.58074)" style="fill:#fff"/><path d="M23.14965,252.72538l.04559.55414-.07014.16834h-.12977l.014.1929-.07365.17887h-.09119l.02105.25953-.10171.249h-.65234l-.05261-.64532h.64182l.10521-.221h-.3437l.10522-.221h.31915l.07365-.16133h-.30863l.08417-.17887H23.069Zm-1.06969.91538H22.0063l.014.16834a1.92116,1.92116,0,0,1-.1473.28759.5657.5657,0,0,1-.21745.20342.60608.60608,0,0,1-.249.0491c-.10521,0-.17185-.03156-.1964-.0982a.49823.49823,0,0,1-.01754-.12976l-.04559-.54011a.13335.13335,0,0,0,.04209.07014.32352.32352,0,0,0,.19991.05261.4976.4976,0,0,0,.41385-.20693,1.94168,1.94168,0,0,0,.15782-.29109h-.28408a1.47,1.47,0,0,1-.12626.228.11593.11593,0,0,1-.0947.05612.05276.05276,0,0,1-.03858-.014.05632.05632,0,0,1-.01753-.03858.36351.36351,0,0,1,.05962-.17185l.13678-.256a.87155.87155,0,0,1,.10872-.17185.114.114,0,0,1,.08418-.04559.03419.03419,0,0,1,.03156.014.045.045,0,0,1,.014.03507.32086.32086,0,0,1-.04209.12275l-.05611.11574h.28057a.72724.72724,0,0,0,.0491-.22446l.03508.42788a1.59114,1.59114,0,0,1,.007.20692A.73588.73588,0,0,1,22.08,253.64076Zm-1.2661-.65234-.0947.33318h-.12275Zm.29811-.263.04559.55414-.18939,1.04514h-.30161l-.01754-.1964h-.10171l-.12977.1964h-.256l-.05261-.64532h.249l.13678-.21043h.18238l-.05963.21043h.30162Zm-1.16439-.00351.04559.54011-.08768.19641h-.31564Zm.11924.72249.05261.63129-.10171.25252H19.2742l-.05261-.64532h.733Zm-1.34676-.35774.13327-.27356H18.913c.03858,0,.05962.01754.06313.0491a.20407.20407,0,0,1-.02455.10171.218.218,0,0,1-.06313.08768.2287.2287,0,0,1-.1438.03507Zm-.228,1.238H18.187l-.05261-.64532h.2946l.21394-.43139a1.89874,1.89874,0,0,0,.30864-.02455.35248.35248,0,0,0,.16483-.08417.41426.41426,0,0,0,.13328-.29811l.03156.39631c.007.08067.01052.14029.01052.17536a.599.599,0,0,1-.01052.10873.41085.41085,0,0,1-.47347.33318H18.699Zm5.03985-3.30728.13327-.25954a.15761.15761,0,0,1,.03858-.0035c.04208,0,.06313.01753.06663.0491a.20518.20518,0,0,1-.021.08768.21236.21236,0,0,1-.0491.08066.17929.17929,0,0,1-.13678.0456Zm.256,1.231h-.2946l-.03157-.3928-.15782.3928h-.30513l-.05261-.64532h.29812l.21744-.44191h.06664a.04618.04618,0,0,1,.05261.04559.271.271,0,0,1-.03508.09821l-.0491.1017a.65962.65962,0,0,0-.0491.11224.27423.27423,0,0,0-.0035.08066h.29109a.361.361,0,0,1-.014-.0491.1386.1386,0,0,1,.01053-.07716l.05611-.13678c.014-.03858.02455-.06313.02806-.07716a.19979.19979,0,0,0,.00351-.04559.10448.10448,0,0,0-.02455-.06313.27568.27568,0,0,0-.08418-.0491.446.446,0,0,0,.13678-.01754.22929.22929,0,0,0,.08768-.06313.38326.38326,0,0,0,.10873-.23147l.03156.39982a.608.608,0,0,1-.03156.29811.30792.30792,0,0,1-.18238.15081c.00351.04209.007.07365.007.08768a.76109.76109,0,0,1,.00351.11924c-.00351.02105-.014.05963-.03157.11925l-.05962.18588Zm-.76808-1.60279.0456.55414-.07015.16835h-.12976l.014.19289-.07366.17887h-.09118l.021.25953-.10171.249h-.65234l-.0526-.64532H22.571l.10522-.221h-.34371l.10522-.22095h.31915l.07366-.16133h-.30864l.08417-.17887h.33319Zm-1.459.00351.02455.30162-.14379.2911a.53691.53691,0,0,1-.07716.12275.10471.10471,0,0,1-.07716.03507.045.045,0,0,1-.03507-.014.066.066,0,0,1-.01754-.03858.21387.21387,0,0,1,.01052-.05962.68768.68768,0,0,1,.05261-.11223Zm.48049.55063-.221.54011a1.35243,1.35243,0,0,1-.17886.33318.49848.49848,0,0,1-.40684.1964.359.359,0,0,1-.16834-.03156.10273.10273,0,0,1-.0456-.05611.57011.57011,0,0,1-.021-.12276l-.0456-.54712a.16558.16558,0,0,0,.08067.08768.33818.33818,0,0,0,.1473.02455.50378.50378,0,0,0,.31916-.10171.91055.91055,0,0,0,.235-.32617l.25953-.55413Zm-1.16439.40683-.242.64182h-.08417l-.02806-.09118a.40608.40608,0,0,1-.27707.11573.28532.28532,0,0,1-.17185-.0491.13655.13655,0,0,1-.04559-.07014.751.751,0,0,1-.021-.1473l-.04559-.50153a.21624.21624,0,0,0,.08066.09469.327.327,0,0,0,.1438.02806.37741.37741,0,0,0,.28057-.12275l.02806.1017h.07716l.256-.56115h-.35774l-.06663.13678h.07715l-.0526.10873a.5795.5795,0,0,1-.05261.09118.11388.11388,0,0,1-.08418.0456.05632.05632,0,0,1-.03857-.01754.06055.06055,0,0,1-.01754-.04559.49094.49094,0,0,1,.07365-.19991l.12626-.249a.69464.69464,0,0,1,.0982-.15432.12714.12714,0,0,1,.08768-.04559.0362.0362,0,0,1,.02806.014.08673.08673,0,0,1,.014.03156.17456.17456,0,0,1-.01052.05612.82115.82115,0,0,1-.0491.0982h.249c.02455-.04209.03858-.07015.0491-.09119a.48923.48923,0,0,0,.03156-.09469l.03157.38929.01052.11925a.32361.32361,0,0,1-.03157.15081l-.03156.07014H20.863Zm-1.438-.5892.13327-.25954a.15761.15761,0,0,1,.03858-.0035c.04209,0,.06313.01753.06664.0491a.20523.20523,0,0,1-.02105.08768.21236.21236,0,0,1-.0491.08066.17929.17929,0,0,1-.13678.0456Zm.256,1.231h-.2946l-.03157-.3928-.15782.3928h-.30513l-.05261-.64532h.29812l.21393-.44542h.07015a.04618.04618,0,0,1,.05261.0456.27086.27086,0,0,1-.03508.0982l-.0526.10521a.65827.65827,0,0,0-.0491.11223.27391.27391,0,0,0-.00351.08067h.2911a.35815.35815,0,0,1-.014-.0491.1386.1386,0,0,1,.01052-.07716l.05611-.13678c.014-.03858.02455-.06313.02806-.07716a.19979.19979,0,0,0,.00351-.04559.10448.10448,0,0,0-.02455-.06313.27573.27573,0,0,0-.08417-.0491.446.446,0,0,0,.13678-.01754.22944.22944,0,0,0,.08768-.06313.38325.38325,0,0,0,.10872-.23147l.03156.39982a.60789.60789,0,0,1-.03156.29811.30787.30787,0,0,1-.18237.15081c.0035.04209.007.07365.007.08768a.76109.76109,0,0,1,.00351.11924c-.00351.02105-.014.05963-.03157.11925l-.05962.18588Zm-1.21349-1.59928.02455.30162-.14379.2911a.53691.53691,0,0,1-.07716.12275.10471.10471,0,0,1-.07716.03507.045.045,0,0,1-.03507-.014.066.066,0,0,1-.01754-.03858.21387.21387,0,0,1,.01052-.05962.68768.68768,0,0,1,.05261-.11223Zm.484.55063-.22095.54011a1.35207,1.35207,0,0,1-.17887.33318.49846.49846,0,0,1-.40683.1964.35911.35911,0,0,1-.16835-.03156.10271.10271,0,0,1-.04559-.05611.57011.57011,0,0,1-.021-.12276l-.0456-.54712a.16558.16558,0,0,0,.08067.08768.33818.33818,0,0,0,.1473.02455.50378.50378,0,0,0,.31916-.10171.91067.91067,0,0,0,.235-.32617l.25953-.55413Zm-1.62383-.10171h.0491a.05478.05478,0,0,1,.06313.05261.22852.22852,0,0,1-.02455.10872.23474.23474,0,0,1-.07014.09119.23773.23773,0,0,1-.14029.03858h-.021Zm.16835-.3402h.05962a.0888.0888,0,0,1,.04209.007c.007.0035.01052.014.01052.02806a.17352.17352,0,0,1-.02455.09469.16191.16191,0,0,1-.06664.07014.36243.36243,0,0,1-.13327.01754Zm.35072.03508.03507.42086a.54711.54711,0,0,1,0,.13327.25476.25476,0,0,1-.03507.08768.25961.25961,0,0,1-.11223.09119l.014.16484a.81588.81588,0,0,1,.0035.12626.28.28,0,0,1-.01753.09118.66643.66643,0,0,1-.0982.1929.3602.3602,0,0,1-.14029.11574.42494.42494,0,0,1-.18939.03507h-.41736l-.05261-.64533h.3858a.69257.69257,0,0,0,.1964-.021.36265.36265,0,0,0,.12977-.07716.52082.52082,0,0,0,.11924-.16133.32621.32621,0,0,0,.03507-.16484.13323.13323,0,0,0-.03156-.08417.18922.18922,0,0,0-.08418-.04559A.2791.2791,0,0,0,17.8608,250.79292Z" transform="translate(-15.75942 -247.58074)" style="fill:#231f20"/><path d="M17.3768,253.42682l-.28408-.2455-.28408.2455.14379-.34721-.31915-.19641.37527.03157.08768-.36475.08768.36475.37527-.03157-.31916.19641Zm-.70144-.52608.2911.17887-.12976.31565.25953-.221.25953.221-.12977-.31565.2911-.17887-.3402.02806-.07715-.32968-.07716.32968Z" transform="translate(-15.75942 -247.58074)" style="fill:#231f20"/><path d="M16.65081,252.62367v.26655l.21394.13327-.04208.10873v.27l.26654-.228.27707.242v-.27707l-.05261-.11924.21044-.12626v-.27006l-.30162.18238-.26655.0035C16.95594,252.81306,16.65783,252.62367,16.65081,252.62367Z" transform="translate(-15.75942 -247.58074)" style="fill:#231f20"/><path d="M17.36979,253.42682l-.28058-.2455-.27005.23147v-.28408l.03858-.10522-.21043-.13327v-.27707h.007c.00351,0,.007,0,.30513.18939l.263-.00351.30863-.18939v.28058l-.21043.12275.0491.11574Zm-.28058-.25953.27006.235v-.263l-.05261-.12275.21394-.12626v-.256l-.29461.17887-.27005.00351h0c-.10522-.06664-.25953-.16484-.2946-.18588v.256l.21394.13328-.04209.11223v.256Z" transform="translate(-15.75942 -247.58074)" style="fill:#231f20"/><polygon points="1.333 4.724 1.417 5.071 1.772 5.043 1.467 5.229 1.607 5.562 1.333 5.327 1.063 5.562 1.2 5.229 0.895 5.043 1.249 5.071 1.333 4.724" style="fill:#fff"/><path d="M17.3768,253.16027l-.28408-.2455-.28408.2455.14379-.34721-.31915-.1964.37527.03156.08768-.36475.08768.36475.37527-.03156-.31916.1964Zm-.70144-.52958.2911.17886-.12976.31565.25953-.221.25953.221-.12977-.31565.2911-.17886-.3402.02805-.07715-.32967-.07716.32967Z" transform="translate(-15.75942 -247.58074)" style="fill:#231f20"/><path d="M24.293,253.39526l-.28409-.24551-.28408.24551.1438-.34722-.31916-.1964.37527.03156.08768-.36474.08768.36474.37527-.03156-.31915.1964Zm-.28409-.25954.25954.221-.12977-.31565.2911-.17887-.3402.02806-.07716-.32968-.07716.32968-.3402-.02806.2911.17887v.00351l-.12976.30863Z" transform="translate(-15.75942 -247.58074)" style="fill:#231f20"/><path d="M23.567,252.59211v.26654l.21394.13328-.04209.10872v.27006l.26655-.228.27707.242v-.27706l-.05261-.11925.21043-.12626v-.27l-.30162.18237-.26655.00351C23.87213,252.7815,23.574,252.59211,23.567,252.59211Z" transform="translate(-15.75942 -247.58074)" style="fill:#231f20"/><path d="M24.286,253.39526l-.28057-.24551-.27006.23148v-.28409l.03858-.10521-.21043-.13328v-.27706h.007c.00351,0,.007,0,.30513.18938l.263-.0035.30863-.18939v.28057l-.21043.12276.0491.11573h0Zm-.28057-.25954.27.235v-.263l-.05261-.12275.21394-.12626v-.256l-.2946.17887-.27006.0035h0c-.10521-.06663-.25953-.16484-.2946-.18588v.256l.21394.13327-.04209.11223v.256Z" transform="translate(-15.75942 -247.58074)" style="fill:#231f20"/><polygon points="8.249 4.692 8.334 5.039 8.688 5.011 8.383 5.197 8.52 5.527 8.249 5.295 7.976 5.527 8.116 5.197 7.811 5.011 8.165 5.039 8.249 4.692" style="fill:#fff"/><path d="M24.293,253.12871l-.28409-.24551-.28408.24551.1438-.34721-.31916-.19641.37527.03157.08768-.36475.08768.36475.37527-.03157-.31915.19641Zm-.28409-.25953.25954.22095-.12977-.31565.2911-.17887-.3402.02806-.07716-.32967-.07716.32967-.3402-.02806.2911.17887v.00351l-.12976.30863Z" transform="translate(-15.75942 -247.58074)" style="fill:#231f20"/><polygon points="2.568 7.291 2.627 7.224 2.375 6.986 2.312 7.053 2.403 7.137 2.077 7.484 2.147 7.551 2.473 7.203 2.568 7.291" style="fill:#231f20"/><path d="M18.64641,255.205a.15832.15832,0,0,0,.01754-.16133.34754.34754,0,0,0-.10522-.10873l-.07716-.05611-.32968.45944.07716.05612.13328-.18588.0035.0035-.0035.27707.09469.07015-.00351-.29461A.1561.1561,0,0,0,18.64641,255.205Zm-.13678-.1929a.29636.29636,0,0,1,.06664.06664.06381.06381,0,0,1-.007.07716.07091.07091,0,0,1-.07014.03507.20809.20809,0,0,1-.08067-.03858l-.007-.00351.0982-.13678Z" transform="translate(-15.75942 -247.58074)" style="fill:#231f20"/><path d="M18.66044,255.67844l.11574-.09469.20341.1017-.0035.14731.09469.04559.014-.66987-.52257.42086Zm.32968-.27356-.007.17887-.12977-.06313Z" transform="translate(-15.75942 -247.58074)" style="fill:#231f20"/><path d="M19.52321,255.43294l-.11925-.03508-.16133.54362.11925.03507a.49054.49054,0,0,0,.11924.01754.3089.3089,0,0,0,.11574-.02105.26857.26857,0,0,0,.15081-.17886A.28233.28233,0,0,0,19.52321,255.43294Zm-.04559.08066a.297.297,0,0,1,.1508.08768.176.176,0,0,1,.02456.16484c-.0456.15081-.17887.1473-.28409.11574l-.007-.00351.10872-.36826Z" transform="translate(-15.75942 -247.58074)" style="fill:#231f20"/><rect x="19.68097" y="255.78088" width="0.56468" height="0.09821" transform="translate(-251.55645 -12.58719) rotate(-80.88053)" style="fill:#231f20"/><path d="M20.4947,255.58024a.2916.2916,0,0,0-.30863.28759.27969.27969,0,0,0,.08066.21043.29624.29624,0,0,0,.20342.09119h.01052a.31932.31932,0,0,0,.14029-.03507l.007-.00351.0035-.11925-.02455.02105a.19308.19308,0,0,1-.13327.04559.20035.20035,0,0,1-.18939-.21043.20869.20869,0,0,1,.06313-.14029.1956.1956,0,0,1,.1438-.05611.189.189,0,0,1,.12976.0526l.02455.02105.00351-.11925-.007-.0035A.31116.31116,0,0,0,20.4947,255.58024Z" transform="translate(-15.75942 -247.58074)" style="fill:#231f20"/><rect x="20.81402" y="255.57705" width="0.09821" height="0.56468" transform="translate(-38.37394 -244.72133) rotate(-5.08928)" style="fill:#231f20"/><path d="M21.52231,255.52763a.28086.28086,0,0,0-.22446-.03507.296.296,0,0,0-.221.35423.29152.29152,0,0,0,.28408.228.47487.47487,0,0,0,.07014-.007.29526.29526,0,0,0,.18589-.12977.28086.28086,0,0,0,.03507-.22446A.26434.26434,0,0,0,21.52231,255.52763Zm.014.35774a.18525.18525,0,0,1-.12275.08768.20584.20584,0,0,1-.15081-.02456.20977.20977,0,0,1-.09119-.12625.19516.19516,0,0,1,.1473-.242.23674.23674,0,0,1,.0491-.007.18562.18562,0,0,1,.10522.03157.21945.21945,0,0,1,.08768.12626A.19637.19637,0,0,1,21.53634,255.88537Z" transform="translate(-15.75942 -247.58074)" style="fill:#231f20"/><polygon points="6.391 7.603 6.303 7.645 6.457 7.985 5.917 7.768 6.173 8.329 6.261 8.287 6.103 7.943 6.643 8.161 6.391 7.603" style="fill:#231f20"/><path d="M22.55343,255.6083l.08417-.05963-.02806-.14379.18588-.12977.12626.07365.08418-.05962-.57869-.33669Zm.15782-.3893-.11924.08417-.03508-.17536Z" transform="translate(-15.75942 -247.58074)" style="fill:#231f20"/><polygon points="7.509 7.333 7.39 7.445 7.064 7.102 6.994 7.168 7.383 7.579 7.569 7.4 7.509 7.333" style="fill:#231f20"/></svg>