<svg width="0" height="0" class="hidden">
  <symbol xmlns="http://www.w3.org/2000/svg" xmlns:xlink="http://www.w3.org/1999/xlink" viewBox="0 0 9.589 12.994" id="hamburger-marker_bp">
    <defs>
      <linearGradient id="a" x1="5.014" y1="249.359" x2="12.545" y2="256.89" gradientTransform="matrix(-1 0 0 1 29.331 0)" gradientUnits="userSpaceOnUse">
        <stop offset=".015" stop-color="#f54e55"></stop>
        <stop offset=".231" stop-color="#f14a51"></stop>
        <stop offset=".464" stop-color="#e53d44"></stop>
        <stop offset=".704" stop-color="#d2272e"></stop>
        <stop offset=".948" stop-color="#b70910"></stop>
        <stop offset="1" stop-color="#b00209"></stop>
      </linearGradient>
      <linearGradient id="b" x1="7.086" y1="250.539" x2="10.469" y2="253.922" xlink:href="#a"></linearGradient>
    </defs>
    <title>hamburger-marker_bp</title>
    <path d="M15.76 252.375c0 2.722 3.84 7.22 4.646 8.134a.192.192 0 0 0 .292-.003c.799-.938 4.65-5.594 4.65-8.13a4.794 4.794 0 1 0-9.589 0zm1.184-.196a3.61 3.61 0 1 1 3.61 3.61 3.61 3.61 0 0 1-3.61-3.61z" transform="translate(-15.76 -247.58)"
      fill="url(#a)"></path>
    <path d="M20.554 254.623a2.392 2.392 0 1 0-2.392-2.393 2.392 2.392 0 0 0 2.392 2.393z" transform="translate(-15.76 -247.58)" fill="url(#b)"></path>
    <circle cx="4.78" cy="4.687" r="4.128" fill="#ffca05"></circle>
    <path d="M4.78 8.855a4.167 4.167 0 1 1 2.947-1.22 4.144 4.144 0 0 1-2.946 1.22zm0-8.26A4.093 4.093 0 1 0 8.875 4.69 4.097 4.097 0 0 0 4.78.596z" fill="#231f20"></path>
    <path fill="#231f20" d="M1.993 2.185l.161.133-.14.165-.158-.137-.063.074.417.35.06-.07-.19-.161.141-.165.189.161.06-.07-.414-.354-.063.074zm.529.217l.077-.067-.038-.136.165-.14.126.059.077-.067-.582-.277zm.12-.382l-.106.087-.049-.164zm.498-.291l-.362-.277.19.582.084-.049-.102-.291.295.221-.035-.369.196.242.084-.045-.393-.47.043.456zm.578-.372a.129.129 0 0 0 .007-.102.132.132 0 0 0-.102-.098.261.261 0 0 0-.14.017L3.41 1.2l.178.516.127-.046a.247.247 0 0 0 .112-.077.145.145 0 0 0 .017-.137.143.143 0 0 0-.126-.098zm-.07.242l-.049-.14.025-.007a.176.176 0 0 1 .08-.01.057.057 0 0 1 .053.041c.007.018.024.07-.077.105zm-.014-.253a.13.13 0 0 1-.063.035l-.046-.133h.004a.14.14 0 0 1 .07-.01c.014.003.032.01.042.045.01.039.004.056-.007.063zM4.31.968l-.09.017.056.312a.202.202 0 0 1-.004.105.095.095 0 0 1-.077.057.086.086 0 0 1-.091-.028.235.235 0 0 1-.042-.099l-.056-.312-.091.018.06.333a.2.2 0 0 0 .196.179.171.171 0 0 0 .042-.004.197.197 0 0 0 .161-.249zm.541.132a.153.153 0 0 0-.077-.132.263.263 0 0 0-.144-.021L4.54.95l.014.544.095-.004-.007-.217h.003l.158.214.116-.004-.172-.224A.159.159 0 0 0 4.85 1.1zm-.091.008a.069.069 0 0 1-.035.066.177.177 0 0 1-.084.018h-.007l-.004-.158h.004c.087-.003.126.021.126.074zm.53.217l.13.018a.168.168 0 0 1-.17.102.187.187 0 0 1-.122-.078.206.206 0 0 1-.035-.14.203.203 0 0 1 .074-.13.182.182 0 0 1 .277.06l.007.014.073-.053-.007-.01a.274.274 0 0 0-.203-.133.288.288 0 0 0-.21.056.284.284 0 0 0-.11.186.28.28 0 0 0 .232.315.158.158 0 0 0 .039.004.242.242 0 0 0 .154-.053.276.276 0 0 0 .098-.175l.004-.035-.232-.032zm.771-.158l-.102.302c-.031.095-.08.13-.15.105s-.088-.08-.057-.175l.102-.302-.088-.028-.108.323a.196.196 0 0 0 .126.266.262.262 0 0 0 .07.011.202.202 0 0 0 .19-.15l.108-.323zm.428.516l.042-.077-.182-.095.049-.102.189.095.042-.077-.273-.14-.249.484.273.14.042-.077-.189-.098.074-.148.182.095zm.481.165a.163.163 0 0 0 .017-.154.282.282 0 0 0-.102-.102l-.077-.053-.312.442.077.053.126-.18.004.004v.267l.095.067-.004-.281a.158.158 0 0 0 .175-.063zm-.134-.186c.07.05.088.091.056.137a.066.066 0 0 1-.066.031.174.174 0 0 1-.078-.038l-.003-.004.091-.126zm.024.593l.359-.409.07.063-.359.409zM7 2.37l.068.078.136-.042.144.16-.056.13.067.078.263-.59zm.46-.045l-.07.154-.091-.102z"></path>
    <path d="M4.784 1.736a2.943 2.943 0 1 1-2.942 2.942 2.944 2.944 0 0 1 2.942-2.942z" fill="#d71921"></path>
    <path d="M4.784 7.652a2.974 2.974 0 1 1 2.974-2.974 2.976 2.976 0 0 1-2.974 2.974zm0-5.885a2.911 2.911 0 1 0 2.911 2.911 2.913 2.913 0 0 0-2.91-2.91z" fill="#231f20"></path>
    <path d="M1.596 3.082l.334.01c.301.011.133.411-.07.37.617.357-.54.869-.765.55zm1.123-.017l-.305.631-.007.091.045.035.08-.06.362-.7h.256c.021 0-.238.645-.238.645-.218.308-.13.393-.688.364-.095-.077-.14-.16-.095-.26l.348-.743zm3.079.01l-.288.628.021.088.042-.053.039-.014.214-.357.161-.302h.253c.02 0-.28.638-.28.638-.218.309-.141.407-.699.379-.014-.042-.042-.105-.056-.147a.187.187 0 0 1 .01-.162l.337-.698zm-2.711.965l.533-.958h.414c.126.028.147.064.15.106l-.024.13-.035.14-.133.07-.116-.007.102.052-.018.155-.049.077-.046.154.014.07-.294-.007-.12-.02-.027.03-.07-.003zm4.1 0l.53-.94.403-.01c.112.017.077.013.158.098l-.014.13-.043.122-.13.095-.115-.007.095.06-.01.147-.022.101-.052.134-.011.07a7.405 7.405 0 0 0-.79 0m-2.987-.116l.112.197.533.01c.109-.32.217-.642.33-.96-.028-.071-.021-.068-.088-.11l-.13-.02h-.263a.299.299 0 0 0-.214.203s-.165.301-.245.505a.225.225 0 0 0-.035.175m1.974.116l.66.021.42-.982-.564.021-.516.94zm.126 2.069l.681.021.41-.985h-.561l-.53.964zm-3.921-.01l.505-.961h.421c.116.02.13-.014.186.136l-.049.218-.105.165-.295.052-.136-.035-.246.45zm1.088.007l.508-.958.214-.007-.351.726.467.007-.112.26-.726-.028zm.883-.007l.681-.951h.323l-.172.979-.832-.028zm1.042-.277l.25-.516c.076-.267.722-.235.665.01l-.017.225-.123.323-.186.182-.308.137a3.792 3.792 0 0 0-.169-.06c-.126-.052-.143-.144-.112-.301"
      fill="#fff"></path>
    <path d="M7.39 5.145l.046.554-.07.168h-.13l.014.193-.074.179h-.09l.02.26-.102.248h-.652L6.3 6.102h.642l.105-.22h-.343l.105-.222h.32L7.2 5.5h-.309l.084-.18h.334zm-1.07.915h-.073l.014.168a1.921 1.921 0 0 1-.147.288.566.566 0 0 1-.218.203.606.606 0 0 1-.249.05c-.105 0-.172-.032-.196-.099a.498.498 0 0 1-.018-.13L5.388 6a.133.133 0 0 0 .042.07.324.324 0 0 0 .2.053.498.498 0 0 0 .413-.207 1.942 1.942 0 0 0 .158-.29h-.284a1.47 1.47 0 0 1-.126.227.116.116 0 0 1-.095.056.053.053 0 0 1-.038-.014.056.056 0 0 1-.018-.038.364.364 0 0 1 .06-.172l.137-.256a.872.872 0 0 1 .108-.172.114.114 0 0 1 .084-.046.034.034 0 0 1 .032.014.045.045 0 0 1 .014.035.32.32 0 0 1-.042.123l-.056.116h.28a.727.727 0 0 0 .05-.225l.035.428a1.591 1.591 0 0 1 .007.207.736.736 0 0 1-.028.151zm-1.266-.652l-.094.333h-.123zm.299-.263l.045.554-.19 1.045h-.3l-.018-.196h-.102l-.13.196h-.256l-.052-.645h.249l.136-.21h.183l-.06.21h.302zM4.188 5.14l.046.54-.088.197H3.83zm.12.723l.052.631-.102.252h-.743l-.053-.645h.733zM2.96 5.506l.133-.274h.06c.038 0 .06.018.063.05a.204.204 0 0 1-.025.101.218.218 0 0 1-.063.088.229.229 0 0 1-.144.035zm-.228 1.238h-.305l-.053-.645h.295l.214-.432a1.899 1.899 0 0 0 .308-.024.352.352 0 0 0 .165-.085.414.414 0 0 0 .133-.298l.032.397c.007.08.01.14.01.175a.599.599 0 0 1-.01.109.41.41 0 0 1-.474.333H2.94zm5.04-3.307l.133-.26a.158.158 0 0 1 .038-.003c.042 0 .063.017.067.049a.205.205 0 0 1-.021.087.212.212 0 0 1-.05.081.18.18 0 0 1-.136.046zm.255 1.23h-.294l-.032-.392-.157.393h-.306l-.052-.646h.298l.217-.442h.067a.046.046 0 0 1 .053.046.271.271 0 0 1-.036.098l-.049.102a.66.66 0 0 0-.049.112.274.274 0 0 0-.003.08h.29a.361.361 0 0 1-.013-.048.139.139 0 0 1 .01-.077l.057-.137c.014-.039.024-.063.028-.077a.2.2 0 0 0 .003-.046.104.104 0 0 0-.024-.063.276.276 0 0 0-.085-.05.446.446 0 0 0 .137-.017.23.23 0 0 0 .088-.063.383.383 0 0 0 .109-.231l.031.4a.608.608 0 0 1-.031.298.308.308 0 0 1-.183.15c.004.042.007.074.007.088a.761.761 0 0 1 .004.12 1.28 1.28 0 0 1-.032.119l-.06.185zM7.26 3.066l.046.554-.07.168h-.13l.014.193-.074.18h-.09l.02.259-.101.249h-.653l-.052-.646h.642l.105-.22h-.344l.105-.222h.32l.073-.161h-.309l.085-.179h.333zm-1.459.003l.025.302-.144.291a.537.537 0 0 1-.077.123.105.105 0 0 1-.077.035.045.045 0 0 1-.035-.014.066.066 0 0 1-.018-.039.214.214 0 0 1 .01-.06.688.688 0 0 1 .053-.112zm.48.551l-.22.54a1.352 1.352 0 0 1-.179.333.498.498 0 0 1-.407.197.359.359 0 0 1-.168-.032.103.103 0 0 1-.046-.056.57.57 0 0 1-.02-.123l-.046-.547a.166.166 0 0 0 .08.088.338.338 0 0 0 .148.024.504.504 0 0 0 .319-.101.91.91 0 0 0 .235-.327l.26-.554zm-1.163.407l-.242.642H4.79l-.028-.092a.406.406 0 0 1-.277.116.285.285 0 0 1-.172-.049.137.137 0 0 1-.045-.07.751.751 0 0 1-.021-.147l-.046-.502a.216.216 0 0 0 .08.095.327.327 0 0 0 .145.028.377.377 0 0 0 .28-.123l.028.102h.077l.256-.561H4.71l-.067.136h.077l-.052.11a.58.58 0 0 1-.053.09.114.114 0 0 1-.084.046.056.056 0 0 1-.039-.018.06.06 0 0 1-.017-.045.49.49 0 0 1 .073-.2l.127-.25a.695.695 0 0 1 .098-.153.127.127 0 0 1 .088-.046.036.036 0 0 1 .028.014.087.087 0 0 1 .014.032.175.175 0 0 1-.011.056.821.821 0 0 1-.05.098h.25c.024-.042.039-.07.049-.091a.49.49 0 0 0 .032-.095l.031.39.01.119a.324.324 0 0 1-.03.15l-.032.07h-.05zm-1.438-.59l.133-.259a.158.158 0 0 1 .038-.003c.042 0 .063.017.067.049a.205.205 0 0 1-.021.087.212.212 0 0 1-.05.081.18.18 0 0 1-.136.046zm.256 1.232H3.64l-.032-.393-.157.393h-.306l-.052-.646h.298l.214-.445h.07a.046.046 0 0 1 .053.045.27.27 0 0 1-.035.099l-.053.105a.658.658 0 0 0-.05.112.274.274 0 0 0-.003.08h.291a.358.358 0 0 1-.014-.048.139.139 0 0 1 .01-.077l.057-.137c.014-.039.025-.063.028-.077a.2.2 0 0 0 .004-.046.104.104 0 0 0-.025-.063.276.276 0 0 0-.084-.05.446.446 0 0 0 .137-.017.23.23 0 0 0 .087-.063.383.383 0 0 0 .11-.231l.03.4a.608.608 0 0 1-.03.298.308.308 0 0 1-.183.15c.003.042.007.074.007.088a.761.761 0 0 1 .003.12 1.28 1.28 0 0 1-.031.119l-.06.185zm-1.214-1.6l.025.302-.144.291a.537.537 0 0 1-.077.123.105.105 0 0 1-.078.035.045.045 0 0 1-.035-.014.066.066 0 0 1-.017-.039.214.214 0 0 1 .01-.06.688.688 0 0 1 .053-.112zm.484.551l-.22.54a1.352 1.352 0 0 1-.18.333.498.498 0 0 1-.407.197.36.36 0 0 1-.168-.032.103.103 0 0 1-.046-.056.57.57 0 0 1-.02-.123l-.046-.547a.166.166 0 0 0 .08.088.338.338 0 0 0 .148.024.504.504 0 0 0 .319-.101.91.91 0 0 0 .235-.327l.26-.554zm-1.624-.102h.05a.055.055 0 0 1 .062.053.229.229 0 0 1-.024.109.235.235 0 0 1-.07.09.238.238 0 0 1-.14.04h-.022zm.169-.34h.06a.089.089 0 0 1 .041.007c.007.004.01.014.01.028a.174.174 0 0 1-.024.095.162.162 0 0 1-.066.07.362.362 0 0 1-.134.017zm.35.035l.035.421a.547.547 0 0 1 0 .133.255.255 0 0 1-.035.088.26.26 0 0 1-.112.091l.014.165a.816.816 0 0 1 .004.126.28.28 0 0 1-.018.091.666.666 0 0 1-.098.193.36.36 0 0 1-.14.116.425.425 0 0 1-.19.035h-.417l-.053-.645h.386a.693.693 0 0 0 .196-.021.363.363 0 0 0 .13-.077.52.52 0 0 0 .12-.162.326.326 0 0 0 .034-.165.133.133 0 0 0-.031-.084.19.19 0 0 0-.084-.045.28.28 0 0 0 .26-.26zm-.484 2.633l-.284-.245-.284.245.144-.347-.32-.197.376.032.088-.365.087.365.376-.032-.32.197zM.916 5.32l.291.179-.13.316.26-.221.26.22-.13-.315.29-.179-.34.028-.077-.33-.077.33z"
      fill="#231f20"></path>
    <path d="M.891 5.043v.266l.214.134-.042.108v.27l.267-.228.277.242v-.277l-.053-.119.21-.126v-.27l-.3.182-.267.004c0 .003-.299-.186-.306-.186z" fill="#231f20"></path>
    <path d="M1.61 5.846l-.28-.245-.27.231v-.284l.038-.105-.21-.134v-.277h.007c.003 0 .007 0 .305.19l.263-.004.309-.19v.281l-.21.123.048.116zm-.28-.26l.27.236v-.263l-.053-.123.214-.126v-.256l-.294.178-.27.004-.295-.186v.256l.214.133-.042.113v.256z"
      fill="#231f20"></path>
    <path fill="#fff" d="M1.333 4.724l.084.347.355-.028-.305.186.14.333-.274-.235-.27.235.137-.333-.305-.186.354.028.084-.347z"></path>
    <path d="M1.617 5.58l-.284-.246-.284.246.144-.348-.32-.196.376.031.088-.364.087.364.376-.031-.32.196zm-.701-.53l.291.179-.13.315.26-.22.26.22-.13-.315.29-.179-.34.028-.077-.33-.077.33zm7.618.765l-.285-.246-.284.246.144-.348-.319-.196.375.031.088-.364.088.364.375-.031-.32.196zm-.285-.26l.26.221-.13-.316.291-.179-.34.029-.077-.33-.077.33-.34-.029.29.18v.003l-.129.308z"
      fill="#231f20"></path>
    <path d="M7.808 5.011v.267l.214.133-.043.109v.27l.267-.228.277.242v-.277l-.053-.12.21-.126v-.27l-.3.183-.267.003c0 .004-.298-.186-.305-.186z" fill="#231f20"></path>
    <path d="M8.527 5.815l-.281-.246-.27.231v-.284l.039-.105-.21-.133V5h.006c.004 0 .007 0 .305.19l.263-.004.309-.19v.28l-.21.124.049.115zm-.281-.26l.27.235v-.263l-.053-.123.214-.126v-.256l-.294.179-.27.003-.295-.186v.256l.214.134-.042.112v.256z"
      fill="#231f20"></path>
    <path fill="#fff" d="M8.249 4.692l.085.347.354-.028-.305.186.137.33-.271-.232-.273.232.14-.33-.305-.186.354.028.084-.347z"></path>
    <path d="M8.534 5.548l-.285-.246-.284.246.144-.347-.319-.197.375.032.088-.365.088.365.375-.032-.32.197zm-.285-.26l.26.221-.13-.315.291-.18-.34.029-.077-.33-.077.33-.34-.028.29.179v.003l-.129.309zM2.568 7.291l.059-.067-.252-.238-.063.067.091.084-.326.347.07.067.326-.348.095.088zm.319.333a.158.158 0 0 0 .018-.161.348.348 0 0 0-.106-.109l-.077-.056-.33.46.078.056.133-.186.003.003-.003.277.095.07-.004-.294a.156.156 0 0 0 .193-.06zm-.137-.193a.296.296 0 0 1 .067.067.064.064 0 0 1-.007.077.07.07 0 0 1-.07.035.208.208 0 0 1-.081-.038l-.007-.004.098-.137zm.151.667l.116-.095.203.102-.003.147.094.046.014-.67-.522.42zm.33-.274l-.007.179-.13-.063zm.533.028l-.12-.035-.16.544.118.035a.49.49 0 0 0 .12.017.309.309 0 0 0 .115-.02.269.269 0 0 0 .151-.18.282.282 0 0 0-.224-.36zm-.046.08a.297.297 0 0 1 .151.089.176.176 0 0 1 .025.164c-.046.151-.18.148-.285.116l-.007-.003.11-.369zm.392.588l.09-.558.097.016-.09.558zM4.735 8a.292.292 0 0 0-.308.287.28.28 0 0 0 .08.21.296.296 0 0 0 .204.092h.01a.32.32 0 0 0 .14-.035l.008-.004.003-.12-.025.022a.193.193 0 0 1-.133.046.2.2 0 0 1-.19-.21.209.209 0 0 1 .064-.141.196.196 0 0 1 .144-.056.189.189 0 0 1 .13.052l.024.021.004-.119-.007-.003A.311.311 0 0 0 4.735 8zm.295.002l.097-.009.05.563-.097.009zm.733-.055a.28.28 0 0 0-.225-.035.296.296 0 0 0-.22.354.292.292 0 0 0 .284.228.475.475 0 0 0 .07-.007.295.295 0 0 0 .186-.13.28.28 0 0 0 .035-.224.264.264 0 0 0-.13-.186zm.014.358a.185.185 0 0 1-.123.087.206.206 0 0 1-.15-.024.21.21 0 0 1-.092-.127A.195.195 0 0 1 5.56 8a.237.237 0 0 1 .05-.007.186.186 0 0 1 .105.032.22.22 0 0 1 .087.126.196.196 0 0 1-.024.155zm.614-.702l-.088.042.154.34-.54-.217.256.561.088-.042-.158-.344.54.218-.252-.558zm.403.425l.084-.06-.028-.144.186-.13.126.074.084-.06-.578-.336zm.158-.39l-.12.084-.034-.175zm.557-.305l-.119.112-.326-.343-.07.066.389.411.186-.179-.06-.067z"
      fill="#231f20"></path>
  </symbol>
</svg>